<svg width="0" height="0" class="hidden">
	<symbol xmlns="http://www.w3.org/2000/svg" viewBox="0 0 47 47" id="experience-icon">
		<path d="M14.5 16.99h-1a2.5 2.5 0 0 1-2.5-2.5v-1a2.5 2.5 0 0 1 2.5-2.5h1a2.5 2.5 0 0 1 2.5 2.5v1a2.5 2.5 0 0 1-2.5 2.5zm-1-5a1.5 1.5 0 0 0-1.5 1.5v1a1.5 1.5 0 0 0 1.5 1.5h1a1.5 1.5 0 0 0 1.5-1.5v-1a1.5 1.5 0 0 0-1.5-1.5h-1zm22.51 3h-16v-2h16v2zM14.5 27h-1a2.5 2.5 0 0 1-2.5-2.5v-1a2.5 2.5 0 0 1 2.5-2.5h1a2.5 2.5 0 0 1 2.5 2.5v1a2.5 2.5 0 0 1-2.5 2.5zm-1-5a1.5 1.5 0 0 0-1.5 1.5v1a1.5 1.5 0 0 0 1.5 1.5h1a1.5 1.5 0 0 0 1.5-1.5v-1a1.5 1.5 0 0 0-1.5-1.5h-1zm22.51 3h-16v-2h16v2zM14.5 37h-1a2.5 2.5 0 0 1-2.5-2.5v-1a2.5 2.5 0 0 1 2.5-2.5h1a2.5 2.5 0 0 1 2.5 2.5v1a2.5 2.5 0 0 1-2.5 2.5zm-1-5a1.5 1.5 0 0 0-1.5 1.5v1a1.5 1.5 0 0 0 1.5 1.5h1a1.5 1.5 0 0 0 1.5-1.5v-1a1.5 1.5 0 0 0-1.5-1.5h-1zm22.51 3h-16v-2h16v2zM23.5 47A23.5 23.5 0 1 1 47 23.5 23.527 23.527 0 0 1 23.5 47zm0-46A22.5 22.5 0 1 0 46 23.5 22.526 22.526 0 0 0 23.5 1z" fill-rule="evenodd"></path>
	</symbol>
	<symbol xmlns="http://www.w3.org/2000/svg" viewBox="0 0 47 47" id="js-icon">
		<path d="M17.356 15h2.649v11.06a5.524 5.524 0 0 1-.374 2.09 4.359 4.359 0 0 1-1.04 1.55 4.483 4.483 0 0 1-1.582.95 5.849 5.849 0 0 1-2 .33 6.763 6.763 0 0 1-2.012-.28 4.106 4.106 0 0 1-1.583-.86 3.967 3.967 0 0 1-1.036-1.48 5.33 5.33 0 0 1-.372-2.08h2.649a3.406 3.406 0 0 0 .174 1.16 2 2 0 0 0 .483.78 1.967 1.967 0 0 0 .741.44 3.183 3.183 0 0 0 .956.14 2.427 2.427 0 0 0 .946-.18 2.063 2.063 0 0 0 .742-.53 2.426 2.426 0 0 0 .484-.85 3.694 3.694 0 0 0 .173-1.18V15zm14.856 11.77a2.273 2.273 0 0 0-.144-.84 1.671 1.671 0 0 0-.523-.68 4.347 4.347 0 0 0-1.049-.59 16.681 16.681 0 0 0-1.715-.6 17.463 17.463 0 0 1-2.117-.75 7.47 7.47 0 0 1-1.671-1 4.207 4.207 0 0 1-1.1-1.3 3.5 3.5 0 0 1-.4-1.69 3.7 3.7 0 0 1 .414-1.73 4.122 4.122 0 0 1 1.163-1.36 5.439 5.439 0 0 1 1.8-.9 7.693 7.693 0 0 1 2.316-.32 7.155 7.155 0 0 1 2.438.38 5.338 5.338 0 0 1 1.825 1.03 4.483 4.483 0 0 1 1.142 1.51 4.287 4.287 0 0 1 .4 1.83h-2.779a2.913 2.913 0 0 0-.182-1.04 2.134 2.134 0 0 0-.557-.82 2.635 2.635 0 0 0-.949-.54 4.23 4.23 0 0 0-1.357-.19 4.415 4.415 0 0 0-1.279.16 2.51 2.51 0 0 0-.9.44 1.816 1.816 0 0 0-.53.69 2.133 2.133 0 0 0-.17.85 1.687 1.687 0 0 0 .844 1.44 8.765 8.765 0 0 0 2.575 1.07 14.917 14.917 0 0 1 2.349.86 6.526 6.526 0 0 1 1.649 1.06 3.827 3.827 0 0 1 .976 1.33 4.229 4.229 0 0 1 .32 1.68 3.732 3.732 0 0 1-1.55 3.1 5.457 5.457 0 0 1-1.8.84 8.664 8.664 0 0 1-2.36.29 8.823 8.823 0 0 1-2.283-.3 6.482 6.482 0 0 1-2.019-.92 4.889 4.889 0 0 1-1.44-1.53 4.146 4.146 0 0 1-.545-2.16h2.79a2.811 2.811 0 0 0 .27 1.27 2.356 2.356 0 0 0 .74.86 2.993 2.993 0 0 0 1.108.49 5.509 5.509 0 0 0 1.379.16 3.535 3.535 0 0 0 2.19-.57 1.829 1.829 0 0 0 .731-1.51zM23.5 47A23.5 23.5 0 1 1 47 23.5 23.525 23.525 0 0 1 23.5 47zm0-46A22.5 22.5 0 1 0 46 23.5 22.524 22.524 0 0 0 23.5 1z" fill-rule="evenodd"></path>
	</symbol>
	<symbol xmlns="http://www.w3.org/2000/svg" viewBox="0 0 47 47" id="self-info-icon">
		<path d="M33.847 8.311l-20.5 1.7c-.014 0-.026.008-.04.008h-.136A1.151 1.151 0 0 0 12 11.151v25.721A1.15 1.15 0 0 0 13.172 38h.136c.014 0 .026.008.04.008l.091-.008H32.3a1.15 1.15 0 0 0 1.169-1.131v-.528l.378-.032a1.141 1.141 0 0 0 1.147-1.133V9.444a1.141 1.141 0 0 0-1.147-1.133zm-1.9 28.561a.135.135 0 0 1-.146.12H13.172a.135.135 0 0 1-.146-.12V11.151a.137.137 0 0 1 .146-.122H31.8a.137.137 0 0 1 .146.122v25.721zm2.025-1.693a.124.124 0 0 1-.124.122h-.093l-.788.025V11.151a1.151 1.151 0 0 0-1.169-1.132h-5.9l7.971-.695a.123.123 0 0 1 .1.12v25.735zm-6.1-4.178H17.136a1.166 1.166 0 0 0-1.131 1.2v.6a1.165 1.165 0 0 0 1.131 1.2h10.739a1.165 1.165 0 0 0 1.131-1.2v-.6A1.166 1.166 0 0 0 27.875 31zm.131 1.8a.183.183 0 0 1-.131.2H17.136a.182.182 0 0 1-.131-.2v-.6a.181.181 0 0 1 .131-.2h10.739a.181.181 0 0 1 .131.2v.6zM22.5 27a6.5 6.5 0 1 1 6.5-6.5 6.5 6.5 0 0 1-6.5 6.5zm0-12a5.5 5.5 0 1 0 5.5 5.5 5.5 5.5 0 0 0-5.5-5.5zm1 32A23.5 23.5 0 1 1 47 23.5 23.527 23.527 0 0 1 23.5 47zm0-46A22.5 22.5 0 1 0 46 23.5 22.526 22.526 0 0 0 23.5 1z" fill-rule="evenodd"></path>
	</symbol>
	<symbol xmlns="http://www.w3.org/2000/svg" viewBox="0 0 47 47" id="about-myself-icon">
		<path d="M38.016 11.99H22.01v-2h16.006v2zm0 6H22.01v-2h16.006v2zm0 6.01H22.01v-2h16.006v2zm0 6h-29v-2h29v2zm0 6h-29v-2h29v2zM18 10.99a1 1 0 0 1 1 1v9a1 1 0 0 1-1 1h-7a1 1 0 0 1-1-1v-9a1 1 0 0 1 1-1h7m0-1h-7a2 2 0 0 0-2 2v9a2 2 0 0 0 2 2h7a2 2 0 0 0 2-2v-9a2 2 0 0 0-2-2zM23.5 47A23.5 23.5 0 1 1 47 23.5 23.525 23.525 0 0 1 23.5 47zm0-46A22.5 22.5 0 1 0 46 23.5 22.524 22.524 0 0 0 23.5 1z" fill-rule="evenodd"></path>
	</symbol>
</svg>